#!OML:ASF F:\VICON\USERDATA\INSTALL\rory3\rory3.ASF
:FULLY-SPECIFIED
:DEGREES
770
root 3.04955 16.7259 0.0523678 16.0357 4.85247 11.1901
lowerback -7.38935 1.9047 0.622179
upperback -2.12252 2.70248 -7.0836
thorax 2.31886 1.37793 -7.5255
lowerneck -2.07089 14.519 5.30537
upperneck 47.3461 24.3568 -2.17625
head 19.9893 10.6498 2.11763
rclavicle -2.87741e-014 3.81667e-014
rhumerus -37.0668 3.56224 -92.6571
rradius 42.7275
rwrist -38.6879
rhand -9.18247 -47.727
rfingers 7.12502
rthumb 16.7708 -77.0226
lclavicle -2.87741e-014 3.81667e-014
lhumerus -27.5865 -20.1099 82.4237
lradius 41.4438
lwrist 73.5541
lhand -38.4412 -13.2859
lfingers 7.12502
lthumb -11.4648 16.3806
rfemur -51.1606 23.7281 -7.1268
rtibia 74.0751
rfoot 2.65663 10.3654
rtoes -43.7175
lfemur -32.3287 -6.83801 -36.81
ltibia 37.8691
lfoot -16.9638 10.4793
ltoes 5.60267
771
root 3.05233 16.7431 0.0546136 16.0368 4.80025 11.2823
lowerback -7.38396 1.93107 0.528456
upperback -2.10462 2.74674 -7.11609
thorax 2.3379 1.40071 -7.50152
lowerneck -2.15944 14.5304 5.27888
upperneck 47.4475 24.3707 -2.09431
head 20.0588 10.6495 2.17782
rclavicle 1.25731e-014 1.70955e-014
rhumerus -37.0711 3.52542 -92.6666
rradius 42.7443
rwrist -38.9062
rhand -9.71898 -47.2596
rfingers 7.12502
rthumb 16.2542 -76.5983
lclavicle 1.25731e-014 1.70955e-014
lhumerus -27.4889 -20.2058 82.4474
lradius 41.3503
lwrist 73.5672
lhand -38.5509 -13.4303
lfingers 7.12502
lthumb -11.5705 16.2303
rfemur -51.4907 23.8285 -7.40686
rtibia 74.124
rfoot 4.3941 9.88546
rtoes -39.1136
lfemur -32.3094 -6.81164 -36.9303
ltibia 37.8946
lfoot -16.9943 10.5536
ltoes 5.43565
772
root 3.0461 16.7252 0.0548149 15.9997 4.74502 11.2474
lowerback -7.342 1.94196 0.497396
upperback -2.10994 2.76137 -7.10475
thorax 2.30895 1.40719 -7.47067
lowerneck -2.11171 14.5418 5.3838
upperneck 47.4865 24.4176 -2.15987
head 20.1189 10.675 2.14526
rclavicle 3.69243e-014 -5.56597e-015
rhumerus -37.0636 3.45011 -92.6477
rradius 42.7338
rwrist -38.7519
rhand -9.39211 -47.9022
rfingers 7.12502
rthumb 16.569 -77.2149
lclavicle 3.69243e-014 -5.56597e-015
lhumerus -27.4457 -20.2102 82.4318
lradius 41.2219
lwrist 73.5864
lhand -38.2732 -13.813
lfingers 7.12502
lthumb -11.3028 15.8625
rfemur -51.2189 23.8063 -7.20062
rtibia 74.1134
rfoot 2.65128 10.4828
rtoes -43.6366
lfemur -32.3508 -6.74903 -36.8806
ltibia 37.9623
lfoot -17.0553 10.5041
ltoes 5.65499
773
root 3.04941 16.7531 0.0538468 16.0001 4.73221 11.0886
lowerback -7.29846 1.99181 0.658586
upperback -2.16845 2.81194 -7.10545
thorax 2.23812 1.43114 -7.56186
lowerneck -1.90366 14.4842 5.60828
upperneck 47.398 24.3573 -2.34181
head 20.0922 10.6819 1.999
rclavicle -2.80783e-014 6.20208e-014
rhumerus -37.1305 3.28581 -92.6576
rradius 42.7064
rwrist -38.5613
rhand -9.0169 -48.3273
rfingers 7.12502
rthumb 16.9302 -77.6094
lclavicle -2.80783e-014 6.20208e-014
lhumerus -27.5174 -20.2901 82.423
lradius 41.1461
lwrist 73.5222
lhand -37.9755 -14.0036
lfingers 7.12502
lthumb -11.0157 15.6874
rfemur -51.7453 24.1074 -7.31225
rtibia 74.192
rfoot 4.97918 9.60231
rtoes -37.4536
lfemur -32.2571 -6.70559 -36.7015
ltibia 37.7584
lfoot -17.0311 10.3992
ltoes 5.98162
774
root 3.0487 16.7601 0.0531638 16.0687 4.66031 11.0813
lowerback -7.42371 2.03554 0.638602
upperback -2.14493 2.8783 -7.12806
thorax 2.34185 1.467 -7.56432
lowerneck -1.86482 14.4671 5.68106
upperneck 47.3425 24.3248 -2.38855
head 20.0666 10.6802 1.95548
rclavicle -2.61899e-014 6.59965e-014
rhumerus -37.0595 3.20579 -92.6527
rradius 42.7234
rwrist -38.5091
rhand -8.94571 -48.6075
rfingers 7.12502
rthumb 16.9987 -77.8837
lclavicle -2.61899e-014 6.59965e-014
lhumerus -27.6084 -20.3183 82.3896
lradius 41.3041
lwrist 73.5376
lhand -37.8289 -14.0878
lfingers 7.12502
lthumb -10.8742 15.6106
rfemur -52.0574 24.2001 -7.44571
rtibia 74.249
rfoot 5.44921 9.31047
rtoes -36.2124
lfemur -32.3117 -6.65499 -36.6936
ltibia 37.6768
lfoot -17.004 10.3541
ltoes 6.11321
775
root 3.04779 16.7606 0.055576 16.0924 4.60628 11.179
lowerback -7.52239 2.03207 0.515126
upperback -2.09281 2.88993 -7.15393
thorax 2.44823 1.4752 -7.51611
lowerneck -1.99875 14.5168 5.62915
upperneck 47.486 24.3627 -2.21327
head 20.1495 10.6901 2.07164
rclavicle -5.1684e-015 3.81667e-014
rhumerus -36.9901 3.17693 -92.6392
rradius 42.7925
rwrist -38.4463
rhand -8.88572 -48.835
rfingers 7.12502
rthumb 17.0564 -78.1062
lclavicle -5.1684e-015 3.81667e-014
lhumerus -27.7344 -20.2555 82.3393
lradius 41.5691
lwrist 73.5704
lhand -37.8373 -13.8197
lfingers 7.12502
lthumb -10.8823 15.8783
rfemur -52.1104 24.2038 -7.57012
rtibia 74.2941
rfoot 5.40128 9.31513
rtoes -36.1453
lfemur -32.2536 -6.63753 -36.802
ltibia 37.5219
lfoot -16.9327 10.3429
ltoes 6.11474
776
root 3.04864 16.7613 0.0573706 16.086 4.59733 11.2277
lowerback -7.45901 2.03195 0.495739
upperback -2.13336 2.88796 -7.19009
thorax 2.3713 1.47229 -7.54649
lowerneck -1.92656 14.5362 5.72546
upperneck 47.5492 24.3951 -2.20487
head 20.1972 10.7186 2.0679
rclavicle -3.51352e-014 3.93594e-014
rhumerus -37.0823 3.17858 -92.6836
rradius 42.87
rwrist -38.4985
rhand -9.14572 -48.4873
rfingers 7.12502
rthumb 16.8062 -77.78
lclavicle -3.51352e-014 3.93594e-014
lhumerus -27.8202 -20.2572 82.3229
lradius 41.5984
lwrist 73.5629
lhand -37.8878 -13.572
lfingers 7.12502
lthumb -10.931 16.1235
rfemur -52.0985 24.2047 -7.62269
rtibia 74.3249
rfoot 5.36869 9.37573
rtoes -35.9787
lfemur -32.2199 -6.62942 -36.8654
ltibia 37.478
lfoot -16.8948 10.3804
ltoes 5.9165
777
root 3.05002 16.7582 0.0572702 16.1204 4.59735 11.2684
lowerback -7.45791 2.02446 0.466538
upperback -2.15647 2.87923 -7.20636
thorax 2.34485 1.46697 -7.54842
lowerneck -1.75219 14.5217 5.84134
upperneck 47.3979 24.4153 -2.41021
head 20.1246 10.7396 1.93742
rclavicle 6.75868e-015 5.96354e-015
rhumerus -37.1437 3.23332 -92.717
rradius 42.9911
rwrist -38.5498
rhand -9.33994 -48.7564
rfingers 7.12502
rthumb 16.6192 -78.0648
lclavicle 6.75868e-015 5.96354e-015
lhumerus -27.7818 -20.2568 82.3198
lradius 41.5215
lwrist 73.6335
lhand -37.9466 -13.601
lfingers 7.12502
lthumb -10.9878 16.0915
rfemur -52.129 24.1324 -7.67423
rtibia 74.352
rfoot 5.38046 9.38681
rtoes -36.1584
lfemur -32.2537 -6.63066 -36.9181
ltibia 37.4866
lfoot -16.8832 10.383
ltoes 5.75421
778
root 3.05199 16.7599 0.0583728 16.1356 4.61004 11.2576
lowerback -7.49983 2.00155 0.469349
upperback -2.12474 2.85092 -7.18882
thorax 2.39667 1.45404 -7.53253
lowerneck -1.77922 14.5382 5.81458
upperneck 47.3139 24.4529 -2.4757
head 20.0866 10.7451 1.91571
rclavicle -8.79622e-015 0
rhumerus -37.0955 3.3006 -92.7384
rradius 43.0253
rwrist -38.5683
rhand -8.98057 -49.5052
rfingers 7.12502
rthumb 16.9651 -78.7843
lclavicle -8.79622e-015 0
lhumerus -27.7151 -20.183 82.2859
lradius 41.5428
lwrist 73.7165
lhand -38.1196 -13.5045
lfingers 7.12502
lthumb -11.1546 16.179
rfemur -52.1188 24.073 -7.64671
rtibia 74.3471
rfoot 5.46521 9.1486
rtoes -35.5254
lfemur -32.2998 -6.66863 -36.8878
ltibia 37.5166
lfoot -16.9636 10.2563
ltoes 6.77205
779
root 3.05269 16.7655 0.0588937 16.1145 4.60454 11.2046
lowerback -7.46135 1.99193 0.501703
upperback -2.10472 2.83455 -7.16586
thorax 2.3942 1.4461 -7.52889
lowerneck -1.80675 14.5806 5.81798
upperneck 47.246 24.5285 -2.5279
head 20.0665 10.7705 1.9054
rclavicle 4.01545e-014 1.78906e-014
rhumerus -37.0027 3.40721 -92.7859
rradius 42.9214
rwrist -38.6539
rhand -9.64483 -49.2704
rfingers 7.12502
rthumb 16.3256 -78.6032
lclavicle 4.01545e-014 1.78906e-014
lhumerus -27.6916 -20.1482 82.2584
lradius 41.5462
lwrist 73.6942
lhand -38.0549 -13.7113
lfingers 7.12502
lthumb -11.0922 15.9755
rfemur -52.1015 24.1442 -7.59035
rtibia 74.3208
rfoot 5.55965 8.8846
rtoes -34.3086
lfemur -32.3285 -6.6963 -36.802
ltibia 37.5603
lfoot -17.0757 10.1153
ltoes 8.02128
780
root 3.05177 16.7639 0.0567219 16.1079 4.61902 11.1704
lowerback -7.38861 1.98201 0.520149
upperback -2.10056 2.81703 -7.14929
thorax 2.35561 1.43666 -7.52525
lowerneck -1.70381 14.597 5.8726
upperneck 47.0705 24.5694 -2.67268
head 19.9681 10.7948 1.81901
rclavicle -5.30755e-014 4.96962e-014
rhumerus -36.9451 3.51437 -92.8338
rradius 42.8781
rwrist -38.7858
rhand -9.39 -49.7467
rfingers 7.12502
rthumb 16.571 -79.0592
lclavicle -5.30755e-014 4.96962e-014
lhumerus -27.6934 -20.076 82.2381
lradius 41.586
lwrist 73.6126
lhand -37.9724 -13.7052
lfingers 7.12502
lthumb -11.0126 15.9859
rfemur -52.1289 24.19 -7.555
rtibia 74.3274
rfoot 5.65833 8.81327
rtoes -33.6269
lfemur -32.3161 -6.68184 -36.7694
ltibia 37.596
lfoot -17.0557 10.1823
ltoes 7.20489
781
root 3.05123 16.7594 0.0554652 16.1157 4.64356 11.1342
lowerback -7.3812 1.95484 0.548071
upperback -2.08287 2.77839 -7.12535
thorax 2.36472 1.41762 -7.51952
lowerneck -1.68059 14.614 5.86432
upperneck 46.9848 24.598 -2.72776
head 19.9166 10.8043 1.79213
rclavicle -1.09332e-014 -1.23246e-014
rhumerus -36.8887 3.61776 -92.8685
rradius 42.8813
rwrist -38.8593
rhand -9.00232 -50.469
rfingers 7.12502
rthumb 16.9442 -79.7499
lclavicle -1.09332e-014 -1.23246e-014
lhumerus -27.651 -19.9462 82.2027
lradius 41.5991
lwrist 73.5871
lhand -38.1004 -13.3432
lfingers 7.12502
lthumb -11.1361 16.3413
rfemur -52.1548 24.1596 -7.50067
rtibia 74.3421
rfoot 5.72589 8.90371
rtoes -34.0477
lfemur -32.3067 -6.65637 -36.7487
ltibia 37.628
lfoot -17.0116 10.2962
ltoes 6.07556
782
root 3.05157 16.7591 0.0575468 16.127 4.64214 11.0807
lowerback -7.37023 1.94439 0.584931
upperback -2.1026 2.75946 -7.10734
thorax 2.33624 1.40722 -7.52389
lowerneck -1.71879 14.6324 5.86398
upperneck 47.0298 24.6269 -2.70166
head 19.9542 10.8127 1.81701
rclavicle -3.50358e-014 5.56597e-014
rhumerus -36.8874 3.66055 -92.8938
rradius 42.8894
rwrist -38.8518
rhand -8.77116 -51.0674
rfingers 7.12502
rthumb 17.1667 -80.329
lclavicle -3.50358e-014 5.56597e-014
lhumerus -27.6579 -19.9244 82.2024
lradius 41.5422
lwrist 73.5856
lhand -38.2753 -13.2652
lfingers 7.12502
lthumb -11.3047 16.4101
rfemur -52.1551 24.1763 -7.43442
rtibia 74.3495
rfoot 5.67069 8.97082
rtoes -34.5848
lfemur -32.3416 -6.6413 -36.6964
ltibia 37.7078
lfoot -17.0848 10.3253
ltoes 6.09172
